<?xml version="1.0" standalone="no"?>
<!DOCTYPE svg PUBLIC "-//W3C//DTD SVG 20010904//EN"
 "http://www.w3.org/TR/2001/REC-SVG-20010904/DTD/svg10.dtd">
<svg version="1.0" xmlns="http://www.w3.org/2000/svg"
 width="256.000000pt" height="256.000000pt" viewBox="0 0 256.000000 256.000000"
 preserveAspectRatio="xMidYMid meet">
<metadata>
Created by potrace 1.11, written by Peter Selinger 2001-2013
</metadata>
<g transform="translate(0.000000,256.000000) scale(0.100000,-0.100000)"
fill="#000000" stroke="none">
<path d="M1190 2382 c0 -5 -26 -15 -57 -22 -230 -50 -422 -222 -499 -446 -24
-69 -28 -97 -30 -215 -3 -141 -8 -169 -129 -724 -53 -244 -52 -233 -28 -273
12 -21 27 -36 35 -35 7 1 51 11 98 22 46 11 86 18 88 16 2 -1 12 -37 22 -77
10 -41 44 -133 75 -204 32 -71 63 -144 69 -162 20 -53 63 -91 101 -89 19 1 31
7 28 13 -2 6 3 17 12 24 8 7 15 20 15 30 0 25 11 32 28 17 8 -6 17 -11 19 -9
11 8 24 0 19 -13 -4 -12 -2 -13 12 -6 11 6 24 6 32 1 8 -5 36 -12 62 -15 26
-4 48 -12 48 -18 0 -8 3 -8 8 -2 11 16 78 13 74 -3 -1 -8 2 -11 8 -7 6 3 8 9
6 13 -2 4 12 8 32 9 20 1 40 -3 44 -10 5 -8 8 -6 8 7 0 14 6 17 25 14 15 -3
22 -1 18 5 -4 6 0 8 9 4 9 -3 21 0 28 6 10 9 11 9 6 -3 -4 -8 -1 -7 8 4 8 10
19 15 25 11 6 -3 11 0 11 7 1 8 7 5 16 -7 16 -20 16 -20 9 3 -4 13 -2 22 5 22
6 0 9 -4 6 -9 -8 -12 53 -93 64 -86 6 3 10 0 10 -7 0 -10 2 -10 9 1 5 8 18 12
30 8 13 -3 21 -1 20 6 -3 28 2 37 24 37 13 0 28 5 35 12 8 8 15 8 29 -3 16
-13 17 -12 4 4 -11 14 -11 17 0 17 10 0 10 3 1 12 -7 7 -12 17 -12 22 1 6 10
0 20 -13 11 -13 20 -19 20 -13 0 5 -7 15 -15 22 -8 7 -15 17 -15 22 0 6 7 5
15 -2 11 -9 15 -9 15 -1 0 7 4 10 9 6 6 -3 8 6 5 21 -4 23 -3 25 10 15 11 -9
16 -9 22 0 4 7 3 9 -3 6 -6 -4 -17 1 -24 10 -12 15 -12 16 4 10 9 -3 17 -2 17
4 0 6 6 7 13 4 6 -4 1 3 -12 14 -17 16 -19 21 -8 21 9 0 19 -4 22 -10 3 -5 12
-10 18 -10 7 0 4 5 -5 11 -26 15 -23 32 3 18 15 -8 19 -8 15 0 -4 6 -2 11 5
11 9 0 9 4 -1 15 -6 8 -9 19 -5 24 3 6 0 8 -8 5 -8 -3 -14 1 -14 10 0 8 9 14
19 13 10 -1 18 -5 18 -10 0 -4 5 -5 10 -2 6 4 10 12 9 18 -3 27 2 38 14 31 6
-4 3 2 -7 14 -17 20 -10 33 8 15 3 -4 13 -8 22 -9 12 -2 13 1 3 12 -6 7 -15
11 -20 8 -11 -7 -11 -6 1 35 7 25 7 32 -1 24 -6 -6 -19 -9 -28 -6 -14 4 -13 2
2 -10 20 -17 22 -28 5 -23 -7 1 -10 1 -5 -1 4 -3 4 -10 0 -16 -4 -7 -8 -16 -8
-22 -1 -5 -6 -9 -13 -7 -8 1 -7 -7 5 -25 9 -16 11 -23 4 -16 -21 18 -63 -4
-51 -27 11 -21 -6 -41 -29 -33 -13 5 -14 3 -4 -7 8 -8 17 -10 26 -4 7 5 4 1
-7 -9 -10 -10 -25 -16 -33 -13 -23 9 -14 -3 15 -19 24 -14 24 -15 3 -9 -15 4
-21 2 -17 -4 4 -6 -3 -16 -14 -22 -11 -6 -18 -14 -16 -19 8 -12 -33 -73 -45
-65 -8 5 -8 1 0 -13 11 -23 6 -33 -18 -33 -10 0 -12 3 -6 8 6 4 10 14 10 22
-1 8 10 33 23 54 13 22 25 45 26 52 1 6 7 18 14 26 6 8 9 18 5 21 -3 4 1 9 10
13 9 3 14 14 12 25 -2 10 1 19 6 19 6 0 7 5 4 10 -3 6 1 13 10 16 12 5 13 9 5
14 -9 5 -9 9 -1 14 6 4 11 2 11 -3 0 -6 5 -11 10 -11 12 0 9 22 -4 32 -6 4 -5
12 2 20 6 7 9 26 8 41 -3 27 -3 27 20 12 29 -18 32 -5 5 19 -16 14 -17 21 -7
41 6 14 15 25 20 25 4 0 1 -11 -7 -24 -15 -22 -15 -25 -1 -37 13 -11 15 -10
14 2 -4 26 0 40 10 34 6 -3 10 -1 10 4 0 19 43 5 58 -18 13 -20 13 -21 -3 -14
-15 5 -17 3 -12 -11 4 -9 3 -15 -1 -12 -12 7 -11 -26 1 -42 5 -6 15 -12 21
-12 6 0 4 5 -4 10 -8 5 -13 10 -10 11 35 6 44 9 52 17 6 6 0 8 -16 7 -13 -2
-27 2 -29 9 -3 8 5 12 26 11 17 -1 33 -7 35 -14 3 -9 7 -9 18 0 11 9 18 8 31
-2 9 -8 14 -9 10 -3 -4 7 0 14 8 18 8 3 17 1 20 -4 4 -6 1 -10 -6 -10 -7 0 -9
-3 -6 -6 10 -10 39 17 34 31 -3 6 7 22 21 36 19 17 24 19 19 7 -3 -10 -2 -18
3 -18 16 0 11 30 -5 36 -8 4 -13 9 -11 13 3 4 1 13 -3 19 -6 10 -11 9 -21 -3
-11 -13 -10 -15 1 -10 10 4 15 -2 16 -16 2 -21 1 -21 -18 -3 -11 10 -19 14
-18 9 2 -6 -2 -20 -9 -31 -6 -12 -9 -24 -6 -27 3 -3 -3 -10 -14 -16 -20 -11
-20 -10 -4 22 8 17 20 35 26 39 6 4 7 8 2 8 -5 0 -3 7 5 16 7 9 9 18 3 22 -5
4 -11 21 -13 37 -1 17 -6 35 -9 40 -10 16 -11 36 -1 29 14 -8 11 6 -6 22 -8 8
-12 20 -9 27 2 7 -2 30 -11 50 -8 20 -12 37 -8 37 4 0 2 5 -5 12 -16 16 -15
28 3 28 8 0 15 4 15 9 0 5 -7 8 -16 7 -9 0 -19 5 -21 12 -3 7 1 10 9 7 17 -6
45 11 35 22 -5 4 -12 1 -17 -7 -7 -11 -11 -11 -24 -1 -19 16 -22 46 -3 35 9
-6 9 -4 -1 8 -7 8 -10 22 -6 31 3 8 1 18 -5 22 -7 3 -8 0 -5 -9 3 -9 2 -16 -3
-16 -10 0 -11 7 -14 55 -1 14 -6 25 -12 25 -6 0 -7 3 -4 7 4 3 15 -2 26 -11
10 -10 21 -13 24 -9 8 12 2 49 -6 43 -3 -3 -13 4 -22 15 -16 20 -16 20 -5 -2
5 -12 15 -25 20 -28 6 -3 10 -11 10 -16 0 -20 -48 27 -53 51 -9 44 -16 70 -22
80 -3 6 2 10 12 11 14 0 15 2 3 7 -8 4 -17 14 -19 22 -6 25 -13 74 -14 105 -1
17 -6 33 -12 37 -6 5 -5 8 3 8 6 0 12 5 12 11 0 5 -4 7 -10 4 -5 -3 -10 -2
-10 4 0 5 6 12 13 14 10 4 10 6 0 6 -7 1 -13 6 -13 12 0 5 3 8 8 6 4 -3 5 18
3 45 -2 33 0 48 7 44 6 -3 14 -1 18 5 4 8 3 9 -5 5 -16 -10 -30 34 -20 62 5
12 5 22 1 22 -4 0 -13 27 -19 60 -24 126 -119 279 -230 371 -81 66 -214 129
-308 143 -22 4 -41 11 -43 16 -4 12 -172 13 -172 2z m975 -1691 c3 -6 -4 -15
-15 -21 -20 -11 -21 -10 -10 9 12 23 16 25 25 12z m-127 -31 c3 -3 20 -7 34
-9 9 -1 9 -4 0 -13 -9 -9 -15 -9 -23 -1 -6 6 -17 9 -24 7 -7 -3 -15 1 -18 9
-4 10 0 14 11 12 9 -2 18 -4 20 -5z m112 -20 c0 -5 -2 -10 -4 -10 -3 0 -8 5
-11 10 -3 6 -1 10 4 10 6 0 11 -4 11 -10z m-160 -34 c0 -3 -4 -8 -10 -11 -5
-3 -10 -1 -10 4 0 6 5 11 10 11 6 0 10 -2 10 -4z m-100 -167 c0 -5 -4 -9 -8
-9 -5 0 -9 7 -9 15 0 8 4 12 9 9 4 -3 8 -9 8 -15z m-75 -101 c-1 -12 -7 -24
-14 -26 -15 -5 -11 29 4 40 6 4 10 8 11 8 0 0 0 -10 -1 -22z m-45 -78 c0 -5
-4 -10 -10 -10 -5 0 -10 5 -10 10 0 6 5 10 10 10 6 0 10 -4 10 -10z"/>
<path d="M2110 1560 c0 -5 5 -10 11 -10 5 0 7 5 4 10 -3 6 -8 10 -11 10 -2 0
-4 -4 -4 -10z"/>
<path d="M1986 1542 c-3 -5 1 -9 9 -9 8 0 15 4 15 9 0 4 -4 8 -9 8 -6 0 -12
-4 -15 -8z"/>
<path d="M2093 1511 c0 -11 5 -18 9 -15 4 3 5 11 1 19 -7 21 -12 19 -10 -4z"/>
<path d="M1992 1471 c7 -9 13 -18 15 -20 1 -2 1 5 0 16 0 11 -7 20 -14 20 -10
0 -10 -4 -1 -16z"/>
<path d="M2056 1478 c3 -5 10 -6 15 -3 13 9 11 12 -6 12 -8 0 -12 -4 -9 -9z"/>
<path d="M1988 1433 c6 -2 9 -10 6 -15 -4 -7 -2 -8 5 -4 13 9 5 26 -12 25 -9
0 -8 -2 1 -6z"/>
<path d="M2010 1398 c0 -4 4 -8 9 -8 6 0 12 4 15 8 3 5 -1 9 -9 9 -8 0 -15 -4
-15 -9z"/>
<path d="M2039 1388 c0 -2 -2 -13 -5 -25 -4 -22 -3 -22 16 -6 24 21 25 24 3
16 -11 -4 -14 -3 -9 5 4 7 5 12 2 12 -3 0 -6 -1 -7 -2z"/>
<path d="M2006 1318 c3 -4 13 -12 23 -17 13 -7 18 -6 18 4 0 7 -7 11 -15 7 -9
-3 -13 -1 -9 5 3 5 0 10 -8 10 -8 0 -12 -4 -9 -9z"/>
<path d="M2065 1319 c-4 -6 -5 -12 -2 -15 2 -3 7 2 10 11 7 17 1 20 -8 4z"/>
<path d="M2070 1280 c0 -5 5 -10 11 -10 5 0 7 5 4 10 -3 6 -8 10 -11 10 -2 0
-4 -4 -4 -10z"/>
<path d="M2096 1242 c-3 -5 1 -9 9 -9 8 0 12 4 9 9 -3 4 -7 8 -9 8 -2 0 -6 -4
-9 -8z"/>
<path d="M2090 1211 c0 -7 -4 -10 -8 -7 -4 2 -9 -4 -9 -15 -1 -10 3 -19 9 -19
6 0 8 3 5 7 -4 3 -2 12 5 20 6 7 8 16 4 20 -3 3 -6 1 -6 -6z"/>
<path d="M2037 1199 c7 -7 15 -10 18 -7 3 3 -2 9 -12 12 -14 6 -15 5 -6 -5z"/>
<path d="M2100 1162 c0 -4 9 -8 19 -8 11 0 17 4 15 8 -7 10 -34 10 -34 0z"/>
<path d="M2070 1140 c0 -5 5 -10 10 -10 6 0 10 5 10 10 0 6 -4 10 -10 10 -5 0
-10 -4 -10 -10z"/>
<path d="M2113 1132 c-7 -4 -9 -13 -4 -21 6 -9 10 -7 14 8 3 12 4 21 4 21 -1
0 -7 -4 -14 -8z"/>
<path d="M2072 1104 c-7 -8 -8 -14 -3 -14 10 0 25 19 20 25 -2 1 -10 -3 -17
-11z"/>
<path d="M2130 1031 c0 -6 4 -13 10 -16 6 -3 7 1 4 9 -7 18 -14 21 -14 7z"/>
<path d="M2101 1021 c-8 -5 -9 -11 -3 -15 5 -3 12 1 16 9 6 17 6 18 -13 6z"/>
<path d="M2120 995 c0 -9 -6 -12 -17 -9 -10 4 -5 -5 12 -20 33 -28 41 -31 50
-16 4 6 11 7 17 4 7 -4 8 -2 4 5 -6 9 -11 9 -22 0 -19 -16 -44 5 -37 31 3 11
3 20 -1 20 -3 0 -6 -7 -6 -15z"/>
<path d="M2150 990 c-8 -15 -8 -18 3 -14 8 3 14 11 14 19 0 20 -4 19 -17 -5z"/>
<path d="M2119 926 c8 -10 9 -16 1 -21 -6 -4 -3 -13 10 -23 22 -18 19 -57 -4
-46 -6 3 -4 0 5 -8 9 -7 14 -23 13 -36 -2 -12 1 -22 7 -22 5 0 7 -6 3 -12 -6
-10 -4 -10 8 0 14 11 18 10 26 -4 8 -15 9 -15 15 0 4 10 3 15 -2 12 -5 -3 -12
2 -15 11 -6 14 -9 15 -15 4 -6 -8 -11 -9 -15 -3 -3 6 -2 13 4 17 6 4 5 13 -2
25 -10 16 -9 24 10 49 18 24 19 29 5 24 -13 -5 -15 -2 -10 11 4 10 3 15 -4 11
-5 -4 -7 -16 -3 -28 6 -21 5 -21 -12 -5 -15 15 -15 19 -3 34 9 12 10 15 2 10
-7 -4 -13 -2 -13 3 0 6 -5 11 -11 11 -8 0 -8 -4 0 -14z"/>
<path d="M2176 927 c3 -10 9 -15 12 -12 3 3 0 11 -7 18 -10 9 -11 8 -5 -6z"/>
<path d="M2171 851 c-8 -14 -7 -22 4 -31 11 -9 15 -9 15 -1 0 6 -4 11 -10 11
-5 0 -7 7 -4 15 4 8 11 12 17 8 6 -3 7 -1 3 5 -10 16 -14 15 -25 -7z"/>
<path d="M2200 826 c0 -2 7 -7 16 -10 8 -3 12 -2 9 4 -6 10 -25 14 -25 6z"/>
<path d="M2195 801 c-3 -5 -2 -12 3 -15 5 -3 9 1 9 9 0 17 -3 19 -12 6z"/>
<path d="M2206 718 c3 -4 9 -8 15 -8 5 0 9 4 9 8 0 5 -7 9 -15 9 -8 0 -12 -4
-9 -9z"/>
<path d="M1933 664 c-3 -8 -10 -11 -17 -7 -6 4 -5 -1 2 -10 13 -15 16 -15 38
0 25 16 25 25 -2 29 -8 1 -18 -4 -21 -12z"/>
<path d="M2170 656 c0 -2 7 -9 15 -16 13 -11 14 -10 9 4 -5 14 -24 23 -24 12z"/>
<path d="M2211 644 c0 -11 3 -14 6 -6 3 7 2 16 -1 19 -3 4 -6 -2 -5 -13z"/>
<path d="M2161 616 c-10 -11 -9 -14 1 -12 14 2 23 15 15 22 -2 2 -10 -2 -16
-10z"/>
<path d="M2213 605 c0 -8 4 -15 9 -15 4 0 8 4 8 9 0 6 -4 12 -8 15 -5 3 -9 -1
-9 -9z"/>
<path d="M1879 604 c-1 -5 -1 -13 0 -18 1 -4 -3 -14 -9 -21 -8 -9 -8 -15 0
-20 6 -3 8 -11 5 -16 -4 -5 -1 -9 5 -9 6 0 10 8 8 18 -2 9 2 16 7 15 16 -3 16
34 -1 48 -8 6 -15 8 -15 3z"/>
<path d="M2024 584 c-18 -14 -18 -15 4 -4 12 6 28 8 34 4 7 -4 8 -3 4 4 -10
16 -18 15 -42 -4z"/>
<path d="M2096 592 c-2 -4 4 -8 14 -8 10 0 16 4 14 8 -3 4 -9 8 -14 8 -5 0
-11 -4 -14 -8z"/>
<path d="M2170 579 c0 -5 5 -7 10 -4 6 3 10 8 10 11 0 2 -4 4 -10 4 -5 0 -10
-5 -10 -11z"/>
<path d="M2013 545 c0 -8 4 -12 9 -9 5 3 6 10 3 15 -9 13 -12 11 -12 -6z"/>
<path d="M1834 473 c3 -16 16 -22 16 -8 0 3 0 10 0 15 0 6 -4 10 -9 10 -5 0
-8 -8 -7 -17z"/>
<path d="M1935 480 c-3 -5 -1 -10 4 -10 6 0 11 5 11 10 0 6 -2 10 -4 10 -3 0
-8 -4 -11 -10z"/>
<path d="M1910 465 c0 -5 5 -17 10 -25 5 -8 10 -10 10 -5 0 6 -5 17 -10 25 -5
8 -10 11 -10 5z"/>
<path d="M1790 385 c-10 -12 -10 -15 2 -15 8 0 15 7 15 15 0 8 -1 15 -2 15 -2
0 -8 -7 -15 -15z"/>
<path d="M1873 335 c0 -8 4 -12 9 -9 5 3 6 10 3 15 -9 13 -12 11 -12 -6z"/>
<path d="M1755 310 c-9 -16 -13 -30 -11 -30 3 0 12 14 21 30 9 17 13 30 11 30
-3 0 -12 -13 -21 -30z"/>
<path d="M1827 279 c7 -7 15 -10 18 -7 3 3 -2 9 -12 12 -14 6 -15 5 -6 -5z"/>
<path d="M1507 228 c-16 -12 -15 -13 7 -13 15 0 22 5 19 13 -3 6 -6 12 -7 12
-1 0 -10 -6 -19 -12z"/>
<path d="M1450 199 c0 -5 5 -7 10 -4 6 3 10 8 10 11 0 2 -4 4 -10 4 -5 0 -10
-5 -10 -11z"/>
<path d="M1760 200 c-9 -6 -10 -10 -3 -10 6 0 15 5 18 10 8 12 4 12 -15 0z"/>
<path d="M1256 182 c-3 -5 1 -9 9 -9 8 0 12 4 9 9 -3 4 -7 8 -9 8 -2 0 -6 -4
-9 -8z"/>
<path d="M1335 180 c3 -5 8 -10 11 -10 2 0 4 5 4 10 0 6 -5 10 -11 10 -5 0 -7
-4 -4 -10z"/>
</g>
</svg>
